<?xml version="1.0" standalone="no"?>
<!DOCTYPE svg PUBLIC "-//W3C//DTD SVG 20010904//EN"
 "http://www.w3.org/TR/2001/REC-SVG-20010904/DTD/svg10.dtd">
<svg version="1.0" xmlns="http://www.w3.org/2000/svg"
 width="1280.000000pt" height="727.000000pt" viewBox="0 0 1280.000000 727.000000"
 preserveAspectRatio="xMidYMid meet">

<g transform="translate(0.000000,727.000000) scale(0.100000,-0.100000)"
fill="#000000" stroke="none">
<path d="M9910 5239 c-52 -4 -158 -12 -235 -18 -77 -6 -187 -15 -245 -21 -58
-5 -145 -12 -195 -15 -49 -2 -119 -7 -155 -10 -192 -16 -333 -27 -395 -31 -38
-3 -97 -9 -130 -14 -33 -5 -96 -11 -140 -15 -189 -13 -224 -17 -299 -30 -81
-14 -110 -31 -119 -68 -3 -12 -10 -40 -16 -62 -6 -22 -11 -101 -12 -176 -1
-123 1 -141 24 -197 14 -34 22 -64 18 -67 -10 -5 -5 -54 8 -87 6 -16 19 -28
33 -30 13 -2 27 -13 33 -25 5 -13 15 -23 22 -23 7 0 13 -4 13 -10 0 -5 6 -10
13 -10 7 0 22 -8 33 -19 11 -10 30 -22 42 -25 27 -9 19 -26 -12 -26 -12 0 -56
-9 -97 -19 -79 -21 -227 -42 -429 -61 -69 -7 -129 -15 -135 -18 -5 -3 -27 -5
-50 -3 -22 1 -96 -5 -165 -14 -69 -9 -172 -20 -230 -26 -300 -27 -497 -62
-543 -95 -63 -46 -75 -49 -110 -29 -48 27 -89 72 -92 100 -4 31 -33 73 -79
112 -20 17 -72 65 -117 107 -44 42 -92 84 -107 94 -14 9 -45 35 -67 57 -50 49
-115 105 -122 105 -10 0 -93 75 -93 85 0 13 -64 75 -78 75 -5 0 -12 6 -15 14
-3 8 -22 22 -41 31 -20 10 -36 21 -36 25 0 5 -26 14 -57 21 -45 9 -91 9 -208
-1 -82 -6 -184 -14 -225 -17 -41 -2 -76 -8 -78 -13 -2 -4 -11 -6 -21 -3 -21 5
-111 -3 -571 -52 -310 -33 -690 -74 -905 -96 -105 -11 -146 -20 -208 -46 -29
-13 -40 -24 -49 -55 -18 -60 -28 -62 -83 -17 -59 46 -98 59 -182 59 -70 0
-643 -47 -1038 -85 -143 -14 -353 -34 -467 -45 -197 -19 -554 -62 -628 -76
-51 -10 -108 -41 -114 -62 -13 -39 -9 -398 5 -450 12 -49 12 -53 -10 -75 -18
-20 -23 -39 -27 -111 -2 -48 -1 -93 3 -99 5 -7 8 -29 9 -49 0 -21 8 -46 17
-56 9 -10 17 -24 17 -30 0 -7 4 -12 9 -12 5 0 12 -14 16 -30 4 -17 13 -30 20
-30 8 0 20 -10 26 -23 7 -12 18 -26 25 -30 8 -4 14 -17 14 -27 0 -11 4 -20 10
-20 5 0 25 -16 45 -37 19 -20 35 -32 35 -28 0 5 11 -2 25 -15 14 -13 25 -31
25 -39 0 -9 14 -22 30 -29 19 -9 32 -23 36 -40 8 -40 26 -72 35 -66 5 3 14 -6
21 -20 6 -14 17 -26 24 -26 19 0 54 -41 54 -62 0 -11 5 -16 10 -13 6 4 17 1
25 -5 8 -7 15 -9 15 -4 1 5 9 -7 19 -26 11 -19 17 -39 14 -44 -4 -5 -2 -6 4
-3 6 4 15 -5 21 -18 7 -15 20 -25 32 -25 13 0 20 -7 20 -20 0 -11 7 -23 15
-26 8 -4 12 -11 9 -16 -12 -19 29 -77 58 -83 34 -8 47 -25 19 -25 -12 0 -21
-4 -21 -10 0 -5 14 -10 30 -10 38 0 39 -17 3 -23 l-28 -4 28 -2 c18 -1 27 -6
27 -18 0 -11 16 -26 40 -37 28 -14 37 -22 28 -28 -10 -6 -10 -8 0 -8 6 0 12
-6 12 -12 0 -7 16 -24 35 -38 20 -15 35 -34 35 -46 0 -12 7 -24 15 -28 8 -3
20 -16 26 -29 6 -13 26 -32 45 -40 19 -9 34 -21 34 -27 0 -5 6 -10 14 -10 16
0 140 -62 144 -72 2 -5 12 -8 22 -8 10 0 34 -9 52 -19 33 -20 147 -63 203 -76
37 -9 314 -7 329 2 6 4 27 9 46 10 30 2 176 21 290 39 19 3 51 7 70 10 126 16
336 46 340 49 3 2 34 6 70 10 36 4 74 9 85 11 50 10 148 24 240 34 55 6 123
15 150 20 45 9 123 17 315 35 36 4 76 8 90 10 14 2 84 9 155 15 72 6 148 18
171 26 26 9 75 14 135 13 52 0 128 6 169 14 41 9 149 23 240 32 91 8 179 17
195 20 17 2 91 9 165 15 136 10 207 17 465 44 77 8 174 18 215 21 82 6 107 8
285 30 66 8 147 17 180 20 33 4 74 8 90 10 17 2 78 9 135 14 192 19 265 30
307 45 26 9 76 15 135 14 51 0 154 9 228 21 147 24 214 32 450 56 85 9 173 18
195 20 22 3 108 12 190 20 83 8 193 19 245 25 52 5 118 12 145 14 28 3 136 14
240 25 105 12 269 28 365 36 96 8 225 21 285 29 61 8 151 18 200 21 50 3 151
13 225 20 148 16 395 41 505 50 39 3 133 12 210 20 77 7 201 19 275 25 74 6
180 15 235 20 55 6 125 12 155 15 523 48 662 70 698 108 86 93 156 364 123
483 -14 51 -63 126 -121 184 -44 44 -270 231 -314 260 -27 17 -95 71 -146 116
-19 17 -80 66 -135 109 -55 44 -106 85 -114 93 -51 50 -229 162 -257 162 -8 0
-14 6 -14 14 0 7 -6 19 -14 26 -8 6 -16 20 -18 31 -2 11 -16 28 -33 37 -16 9
-37 24 -45 32 -20 20 -90 72 -115 86 -50 27 -62 33 -89 45 -16 8 -33 23 -38
35 -6 12 -28 30 -50 40 -21 9 -51 28 -66 41 -28 25 -141 96 -198 126 -19 9
-34 21 -34 26 0 5 -8 12 -17 15 -18 7 -43 21 -149 88 -91 56 -164 65 -384 47z
m-1325 -139 c3 -5 -1 -10 -9 -10 -9 0 -16 5 -16 10 0 6 4 10 9 10 6 0 13 -4
16 -10z m1177 -22 c-7 -7 -12 -8 -12 -2 0 14 12 26 19 19 2 -3 -1 -11 -7 -17z
m-1597 -8 c3 -5 -1 -10 -9 -10 -9 0 -16 5 -16 10 0 6 4 10 9 10 6 0 13 -4 16
-10z m357 -68 c8 -8 5 -9 -11 -5 -12 3 -24 9 -26 13 -8 12 23 6 37 -8z m-482
-39 c0 -7 -4 -13 -10 -13 -5 0 -10 7 -10 16 0 8 -4 12 -10 9 -11 -7 -14 18 -3
29 9 8 33 -22 33 -41z m420 37 c0 -5 -5 -10 -11 -10 -5 0 -7 5 -4 10 3 6 8 10
11 10 2 0 4 -4 4 -10z m775 -20 c3 -5 1 -10 -4 -10 -6 0 -11 5 -11 10 0 6 2
10 4 10 3 0 8 -4 11 -10z m-561 -45 c3 -8 1 -15 -4 -15 -6 0 -10 7 -10 15 0 8
2 15 4 15 2 0 6 -7 10 -15z m946 5 c0 -5 -2 -10 -4 -10 -3 0 -8 5 -11 10 -3 6
-1 10 4 10 6 0 11 -4 11 -10z m-1013 -6 c-3 -3 -12 -4 -19 -1 -8 3 -5 6 6 6
11 1 17 -2 13 -5z m-607 -31 c0 -5 -5 -15 -10 -23 -8 -12 -10 -11 -10 8 0 12
5 22 10 22 6 0 10 -3 10 -7z m513 0 c-7 -2 -19 -2 -25 0 -7 3 -2 5 12 5 14 0
19 -2 13 -5z m259 -28 c14 0 20 -15 5 -15 -25 0 -47 11 -41 21 3 5 11 6 17 2
7 -4 15 -8 19 -8z m1518 5 c0 -5 -4 -10 -10 -10 -5 0 -10 5 -10 10 0 6 5 10
10 10 6 0 10 -4 10 -10z m-2275 -10 c3 -5 1 -10 -4 -10 -6 0 -11 5 -11 10 0 6
2 10 4 10 3 0 8 -4 11 -10z m925 -14 c0 -3 -4 -8 -10 -11 -5 -3 -10 -1 -10 4
0 6 5 11 10 11 6 0 10 -2 10 -4z m-120 -16 c0 -5 -9 -10 -20 -10 -11 0 -20 5
-20 10 0 6 9 10 20 10 11 0 20 -4 20 -10z m-3433 -102 c-3 -8 -6 -5 -6 6 -1
11 2 17 5 13 3 -3 4 -12 1 -19z m3447 7 c-4 -9 -20 -16 -40 -16 -19 -1 -38 -2
-44 -3 -5 -1 -10 4 -10 9 1 6 16 9 35 7 18 -1 36 2 40 8 10 16 25 12 19 -5z
m106 7 c0 -13 -12 -22 -22 -16 -10 6 -1 24 13 24 5 0 9 -4 9 -8z m1420 4 c0
-2 -7 -9 -15 -16 -13 -11 -14 -10 -9 4 5 14 24 23 24 12z m-5120 -26 c0 -5 -2
-10 -4 -10 -3 0 -8 5 -11 10 -3 6 -1 10 4 10 6 0 11 -4 11 -10z m-60 -20 c-8
-5 -22 -9 -30 -9 -10 0 -8 3 5 9 27 12 43 12 25 0z m-10 -38 c0 -13 -12 -22
-22 -16 -10 6 -1 24 13 24 5 0 9 -4 9 -8z m310 -12 c0 -5 -7 -10 -15 -10 -8 0
-15 5 -15 10 0 6 7 10 15 10 8 0 15 -4 15 -10z m-700 -10 c0 -5 -7 -10 -15
-10 -8 0 -15 5 -15 10 0 6 7 10 15 10 8 0 15 -4 15 -10z m325 0 c3 -5 2 -10
-4 -10 -5 0 -13 5 -16 10 -3 6 -2 10 4 10 5 0 13 -4 16 -10z m-758 -6 c-3 -3
-12 -4 -19 -1 -8 3 -5 6 6 6 11 1 17 -2 13 -5z m1329 -21 c-7 -7 -26 7 -26 19
0 6 6 6 15 -2 9 -7 13 -15 11 -17z m-736 7 c0 -5 -10 -10 -22 -10 -19 0 -20 2
-8 10 19 13 30 13 30 0z m-360 -7 c0 -5 -5 -15 -10 -23 -8 -12 -10 -11 -10 8
0 12 5 22 10 22 6 0 10 -3 10 -7z m595 -13 c3 -5 -1 -10 -9 -10 -9 0 -16 5
-16 10 0 6 4 10 9 10 6 0 13 -4 16 -10z m340 0 c-3 -5 -10 -10 -16 -10 -5 0
-9 5 -9 10 0 6 7 10 16 10 8 0 12 -4 9 -10z m-400 -19 c-18 -17 -75 -17 -75
-1 0 6 19 10 42 10 26 0 38 -4 33 -9z m155 -11 c0 -5 -4 -10 -10 -10 -5 0 -10
5 -10 10 0 6 5 10 10 10 6 0 10 -4 10 -10z m-170 -35 c-32 -18 -40 -18 -40 -2
0 9 12 14 33 15 l32 1 -25 -14z m750 -9 c0 -9 -30 -14 -35 -6 -4 6 3 10 14 10
12 0 21 -2 21 -4z m-375 -34 c0 -18 -20 -15 -23 4 -3 10 1 15 10 12 7 -3 13
-10 13 -16z m92 -8 c3 -9 0 -20 -8 -25 -23 -14 -29 -11 -29 16 0 28 27 35 37
9z m3444 -337 c8 -7 19 -21 23 -32 6 -16 1 -14 -23 9 -17 17 -31 31 -31 33 0
7 16 2 31 -10z m-1861 -57 c0 -5 -2 -10 -4 -10 -3 0 -8 5 -11 10 -3 6 -1 10 4
10 6 0 11 -4 11 -10z m2051 -110 c5 0 9 -7 9 -15 0 -34 -53 3 -65 45 l-8 25
28 -27 c15 -16 32 -28 36 -28z m-8464 -392 c-3 -8 -6 -5 -6 6 -1 11 2 17 5 13
3 -3 4 -12 1 -19z"/>
<path d="M1260 2859 c0 -5 5 -7 10 -4 6 3 10 8 10 11 0 2 -4 4 -10 4 -5 0 -10
-5 -10 -11z"/>
</g>
</svg>
